<svg width="209" height="34" viewBox="0 0 209 34" fill="none" xmlns="http://www.w3.org/2000/svg">
<path d="M13.256 26.432C10.736 26.432 8.528 25.88 6.632 24.776C4.76 23.672 3.284 22.148 2.204 20.204C1.148 18.236 0.62 15.968 0.62 13.4C0.62 10.832 1.148 8.576 2.204 6.632C3.284 4.664 4.76 3.128 6.632 2.024C8.528 0.92 10.736 0.368 13.256 0.368C15.752 0.368 17.948 0.92 19.844 2.024C21.74 3.128 23.216 4.664 24.272 6.632C25.328 8.576 25.856 10.832 25.856 13.4C25.856 15.968 25.328 18.236 24.272 20.204C23.216 22.148 21.74 23.672 19.844 24.776C17.948 25.88 15.752 26.432 13.256 26.432ZM13.256 22.292C15.656 22.292 17.564 21.5 18.98 19.916C20.42 18.332 21.14 16.16 21.14 13.4C21.14 10.64 20.42 8.468 18.98 6.884C17.564 5.3 15.656 4.508 13.256 4.508C10.856 4.508 8.936 5.3 7.496 6.884C6.056 8.468 5.336 10.64 5.336 13.4C5.336 16.16 6.056 18.332 7.496 19.916C8.936 21.5 10.856 22.292 13.256 22.292ZM32.0486 33.92L36.1886 24.812H35.1086L28.1606 8.144H33.1646L38.1686 20.708L43.3886 8.144H48.2846L36.9446 33.92H32.0486ZM53.781 5.372C52.941 5.372 52.245 5.12 51.693 4.616C51.165 4.112 50.901 3.476 50.901 2.708C50.901 1.94 51.165 1.316 51.693 0.835998C52.245 0.331999 52.941 0.079999 53.781 0.079999C54.621 0.079999 55.305 0.331999 55.833 0.835998C56.385 1.316 56.661 1.94 56.661 2.708C56.661 3.476 56.385 4.112 55.833 4.616C55.305 5.12 54.621 5.372 53.781 5.372ZM51.477 26V8.144H56.085V26H51.477ZM60.8947 26V8.144H64.9627L65.3227 11.168C65.8747 10.112 66.6667 9.272 67.6987 8.648C68.7547 8.024 69.9907 7.712 71.4067 7.712C73.6147 7.712 75.3307 8.408 76.5547 9.8C77.7787 11.192 78.3907 13.232 78.3907 15.92V26H73.7827V16.352C73.7827 14.816 73.4707 13.64 72.8467 12.824C72.2227 12.008 71.2507 11.6 69.9307 11.6C68.6347 11.6 67.5667 12.056 66.7267 12.968C65.9107 13.88 65.5027 15.152 65.5027 16.784V26H60.8947ZM91.005 26.432C89.325 26.432 87.825 26.024 86.505 25.208C85.185 24.392 84.141 23.276 83.373 21.86C82.605 20.444 82.221 18.836 82.221 17.036C82.221 15.236 82.605 13.64 83.373 12.248C84.141 10.832 85.185 9.728 86.505 8.936C87.825 8.12 89.325 7.712 91.005 7.712C92.349 7.712 93.525 7.964 94.533 8.468C95.541 8.972 96.357 9.68 96.981 10.592V0.079999H101.589V26H97.485L96.981 23.444C96.405 24.236 95.637 24.932 94.677 25.532C93.741 26.132 92.517 26.432 91.005 26.432ZM91.977 22.4C93.465 22.4 94.677 21.908 95.613 20.924C96.573 19.916 97.053 18.632 97.053 17.072C97.053 15.512 96.573 14.24 95.613 13.256C94.677 12.248 93.465 11.744 91.977 11.744C90.513 11.744 89.301 12.236 88.341 13.22C87.381 14.204 86.901 15.476 86.901 17.036C86.901 18.596 87.381 19.88 88.341 20.888C89.301 21.896 90.513 22.4 91.977 22.4ZM112.437 26.432C110.901 26.432 109.641 26.192 108.657 25.712C107.673 25.208 106.941 24.548 106.461 23.732C105.981 22.916 105.741 22.016 105.741 21.032C105.741 19.376 106.389 18.032 107.685 17C108.981 15.968 110.925 15.452 113.517 15.452H118.053V15.02C118.053 13.796 117.705 12.896 117.009 12.32C116.313 11.744 115.449 11.456 114.417 11.456C113.481 11.456 112.665 11.684 111.969 12.14C111.273 12.572 110.841 13.22 110.673 14.084H106.173C106.293 12.788 106.725 11.66 107.469 10.7C108.237 9.74 109.221 9.008 110.421 8.504C111.621 7.976 112.965 7.712 114.453 7.712C116.997 7.712 119.001 8.348 120.465 9.62C121.929 10.892 122.661 12.692 122.661 15.02V26H118.737L118.305 23.12C117.777 24.08 117.033 24.872 116.073 25.496C115.137 26.12 113.925 26.432 112.437 26.432ZM113.481 22.832C114.801 22.832 115.821 22.4 116.541 21.536C117.285 20.672 117.753 19.604 117.945 18.332H114.021C112.797 18.332 111.921 18.56 111.393 19.016C110.865 19.448 110.601 19.988 110.601 20.636C110.601 21.332 110.865 21.872 111.393 22.256C111.921 22.64 112.617 22.832 113.481 22.832ZM127.059 26V8.144H131.127L131.523 10.556C132.099 9.692 132.855 9.008 133.791 8.504C134.751 7.976 135.855 7.712 137.103 7.712C139.863 7.712 141.819 8.78 142.971 10.916C143.619 9.932 144.483 9.152 145.563 8.576C146.667 8 147.867 7.712 149.163 7.712C151.491 7.712 153.279 8.408 154.527 9.8C155.775 11.192 156.399 13.232 156.399 15.92V26H151.791V16.352C151.791 14.816 151.491 13.64 150.891 12.824C150.315 12.008 149.415 11.6 148.191 11.6C146.943 11.6 145.935 12.056 145.167 12.968C144.423 13.88 144.051 15.152 144.051 16.784V26H139.443V16.352C139.443 14.816 139.143 13.64 138.543 12.824C137.943 12.008 137.019 11.6 135.771 11.6C134.547 11.6 133.551 12.056 132.783 12.968C132.039 13.88 131.667 15.152 131.667 16.784V26H127.059ZM169.342 26.432C167.614 26.432 166.054 26.036 164.662 25.244C163.294 24.452 162.202 23.36 161.386 21.968C160.594 20.552 160.198 18.92 160.198 17.072C160.198 15.224 160.606 13.604 161.422 12.212C162.238 10.796 163.33 9.692 164.698 8.9C166.09 8.108 167.65 7.712 169.378 7.712C171.082 7.712 172.618 8.108 173.986 8.9C175.378 9.692 176.47 10.796 177.262 12.212C178.078 13.604 178.486 15.224 178.486 17.072C178.486 18.92 178.078 20.552 177.262 21.968C176.47 23.36 175.378 24.452 173.986 25.244C172.594 26.036 171.046 26.432 169.342 26.432ZM169.342 22.436C170.542 22.436 171.586 21.992 172.474 21.104C173.362 20.192 173.806 18.848 173.806 17.072C173.806 15.296 173.362 13.964 172.474 13.076C171.586 12.164 170.554 11.708 169.378 11.708C168.154 11.708 167.098 12.164 166.21 13.076C165.346 13.964 164.914 15.296 164.914 17.072C164.914 18.848 165.346 20.192 166.21 21.104C167.098 21.992 168.142 22.436 169.342 22.436ZM182.606 26V0.079999H187.214V26H182.606ZM198.078 26.432C196.542 26.432 195.282 26.192 194.298 25.712C193.314 25.208 192.582 24.548 192.102 23.732C191.622 22.916 191.382 22.016 191.382 21.032C191.382 19.376 192.03 18.032 193.326 17C194.622 15.968 196.566 15.452 199.158 15.452H203.694V15.02C203.694 13.796 203.346 12.896 202.65 12.32C201.954 11.744 201.09 11.456 200.058 11.456C199.122 11.456 198.306 11.684 197.61 12.14C196.914 12.572 196.482 13.22 196.314 14.084H191.814C191.934 12.788 192.366 11.66 193.11 10.7C193.878 9.74 194.862 9.008 196.062 8.504C197.262 7.976 198.606 7.712 200.094 7.712C202.638 7.712 204.642 8.348 206.106 9.62C207.57 10.892 208.302 12.692 208.302 15.02V26H204.378L203.946 23.12C203.418 24.08 202.674 24.872 201.714 25.496C200.778 26.12 199.566 26.432 198.078 26.432ZM199.122 22.832C200.442 22.832 201.462 22.4 202.182 21.536C202.926 20.672 203.394 19.604 203.586 18.332H199.662C198.438 18.332 197.562 18.56 197.034 19.016C196.506 19.448 196.242 19.988 196.242 20.636C196.242 21.332 196.506 21.872 197.034 22.256C197.562 22.64 198.258 22.832 199.122 22.832Z" fill="white"/>
</svg>
